<svg version="1.1" xmlns="http://www.w3.org/2000/svg" xmlns:xlink="http://www.w3.org/1999/xlink" x="0px" y="0px" viewBox="-100 -100 1200 1200" enable-background="new 0 0 1000 1000" xml:space="preserve">
<g><path d="M925.3,787.5v-0.4l-0.1,0.4H925.3z"/><path d="M500,10C229.7,10,10,229.7,10,500c0,270.2,219.7,490,490,490c270.2,0,490-219.8,490-490C990,229.7,770.2,10,500,10z M500,928.8C263.6,928.8,71.3,736.4,71.3,500S263.6,71.3,500,71.3S928.8,263.6,928.8,500S736.4,928.8,500,928.8z"/><path d="M705.4,294.6c-11.9-11.9-31.4-11.9-43.3,0L500,456.7L337.9,294.6c-11.9-11.9-31.4-11.9-43.3,0c-11.9,11.9-11.9,31.4,0,43.3L456.7,500L294.6,662.1c-11.9,11.9-11.9,31.4,0,43.3c6,6,13.8,9,21.7,9s15.6-3,21.7-9L500,543.3l162.1,162.1c6,6,13.8,9,21.7,9s15.6-3,21.7-9c11.9-11.9,11.9-31.4,0-43.3L543.3,500l162.1-162.1C717.3,326,717.3,306.5,705.4,294.6z"/></g>
</svg>